<?xml version="1.0" encoding="UTF-8" standalone="no"?>
<!DOCTYPE svg PUBLIC "-//W3C//DTD SVG 1.1//EN" "http://www.w3.org/Graphics/SVG/1.1/DTD/svg11.dtd">
<svg width="100%" height="100%" viewBox="0 0 2084 2084" version="1.1" xmlns="http://www.w3.org/2000/svg" xmlns:xlink="http://www.w3.org/1999/xlink" xml:space="preserve" xmlns:serif="http://www.serif.com/" style="fill-rule:evenodd;clip-rule:evenodd;stroke-linejoin:round;stroke-miterlimit:2;">
    <g transform="matrix(4.16667,0,0,4.16667,0,0)">
        <path d="M335.883,62.275C334.139,61.99 332.971,60.363 333.257,58.616C333.545,56.856 335.177,55.688 336.935,55.983C338.692,56.279 339.839,57.88 339.553,59.643C339.267,61.411 337.658,62.565 335.883,62.275ZM343.423,62.22C342.972,61.811 342.519,61.402 342.061,60.998C341.956,60.905 341.917,60.825 341.962,60.678C342.09,60.261 342.154,59.831 342.169,59.395C342.173,59.257 342.227,59.189 342.347,59.131C342.851,58.887 343.35,58.633 343.85,58.381C344.126,58.242 344.214,58.052 344.107,57.769C343.746,56.816 343.38,55.866 343.011,54.916C342.908,54.654 342.769,54.593 342.497,54.665C341.909,54.822 341.318,54.976 340.732,55.14C340.605,55.175 340.514,55.165 340.418,55.07C340.108,54.765 339.77,54.493 339.415,54.241C339.333,54.182 339.289,54.115 339.297,54.011C339.342,53.395 339.37,52.777 339.436,52.163C339.462,51.929 339.373,51.823 339.178,51.79C338.164,51.62 337.148,51.455 336.132,51.3C335.861,51.259 335.726,51.377 335.659,51.634C335.519,52.185 335.37,52.733 335.235,53.284C335.201,53.424 335.14,53.496 334.995,53.527C334.584,53.613 334.195,53.768 333.833,53.978C333.706,54.052 333.616,54.051 333.495,53.969C333.025,53.65 332.55,53.34 332.074,53.031C331.768,52.832 331.545,52.87 331.311,53.154C330.695,53.903 330.081,54.652 329.468,55.401C329.247,55.67 329.252,55.795 329.501,56.046C329.901,56.45 330.3,56.854 330.709,57.249C330.818,57.354 330.851,57.452 330.825,57.601C330.754,58.012 330.66,58.423 330.653,58.841C330.65,58.992 330.607,59.061 330.477,59.125C329.958,59.376 329.443,59.637 328.93,59.899C328.688,60.022 328.604,60.206 328.699,60.459C329.064,61.428 329.437,62.395 329.814,63.359C329.912,63.609 330.056,63.665 330.313,63.596C330.901,63.439 331.491,63.284 332.078,63.122C332.2,63.089 332.295,63.084 332.395,63.184C332.703,63.491 333.045,63.759 333.396,64.016C333.483,64.081 333.526,64.146 333.517,64.265C333.473,64.822 333.441,65.381 333.401,65.939C333.375,66.312 333.467,66.436 333.842,66.498C334.312,66.578 334.782,66.652 335.253,66.727C335.757,66.809 336.26,66.895 336.764,66.97C337.081,67.017 337.215,66.921 337.293,66.618C337.436,66.068 337.583,65.519 337.718,64.967C337.748,64.845 337.801,64.785 337.925,64.759C338.344,64.669 338.743,64.519 339.111,64.301C339.253,64.217 339.349,64.242 339.473,64.325C339.942,64.643 340.418,64.953 340.895,65.262C341.167,65.439 341.401,65.407 341.601,65.165C342.227,64.404 342.853,63.642 343.476,62.878C343.706,62.596 343.695,62.468 343.423,62.22Z" style="fill:rgb(0,181,204);fill-rule:nonzero;"/>
        <g transform="matrix(0.255259,0,0,0.247169,-39.318,-11.7133)">
            <ellipse cx="1129.18" cy="1067.59" rx="962.419" ry="992.053" style="fill:rgb(190,190,190);"/>
        </g>
        <path d="M327.377,60.98C324.363,62.063 321.479,63.7 318.831,65.582C316.188,67.485 313.695,69.632 311.544,72.098C310.965,72.677 310.492,73.348 309.968,73.975C309.457,74.614 308.923,75.236 308.481,75.927L307.09,77.951C306.651,78.642 306.264,79.364 305.847,80.07C304.974,81.462 304.354,82.985 303.631,84.458C303.249,85.187 303.024,85.982 302.716,86.742L301.848,89.048L302.667,86.724C302.959,85.957 303.169,85.155 303.535,84.417C304.227,82.927 304.817,81.384 305.664,79.969C306.066,79.251 306.441,78.517 306.868,77.812L308.224,75.747C308.655,75.042 309.179,74.404 309.68,73.749C310.194,73.106 310.658,72.418 311.229,71.822C313.349,69.288 315.821,67.061 318.462,65.074C321.124,63.102 323.968,61.393 327.117,60.185L327.377,60.98Z" style="fill:white;fill-rule:nonzero;"/>
        <path d="M328.228,66.936C325.357,68.008 322.59,69.525 319.993,71.227C317.397,72.944 314.914,74.856 312.665,77.022C310.418,79.183 308.279,81.482 306.447,84.019C305.47,85.243 304.658,86.583 303.796,87.891C302.951,89.208 302.252,90.613 301.471,91.972C302.221,90.598 302.89,89.174 303.707,87.836C304.54,86.508 305.325,85.145 306.278,83.895C308.062,81.309 310.158,78.949 312.374,76.721C314.593,74.488 317.055,72.502 319.643,70.706C322.247,68.92 324.973,67.335 327.952,66.145L328.228,66.936Z" style="fill:white;fill-rule:nonzero;"/>
        <path d="M224.299,47.442C223.812,48.414 223.638,49.362 223.856,50.109C224.174,51.195 224.861,51.43 225.404,51.286C226.013,51.124 226.511,50.474 226.25,49.387C226.066,48.618 225.339,47.895 224.299,47.442ZM239.977,50.796C238.667,50.91 237.448,51.451 236.607,52.332C235.821,53.155 235.609,54.014 236.067,54.519C236.493,54.99 237.454,55.102 238.552,54.242C239.367,53.605 239.88,52.292 239.977,50.796ZM245.492,58.942C244.296,59.193 243.152,59.746 242.34,60.394C241.601,60.987 241.328,61.682 241.645,62.165C241.83,62.447 242.229,62.644 242.782,62.35C243.735,61.845 244.844,60.55 245.492,58.942ZM251.402,74.872L249.283,73.526C249.32,73.467 252.967,67.617 251.514,62.849C250.88,60.77 249.781,59.476 248.249,59.002C248.211,58.99 248.174,58.98 248.137,58.969C247.375,61.517 245.668,63.663 243.958,64.568C242.353,65.419 240.496,64.989 239.546,63.543C238.691,62.24 238.709,60.085 240.772,58.435C242.093,57.378 244.022,56.5 246.042,56.318C246.053,55.443 245.88,54.552 245.455,53.7C244.843,52.477 243.787,51.569 242.473,51.109C242.302,53.262 241.455,55.158 240.1,56.219C237.842,57.986 235.426,57.549 234.207,56.205C233.088,54.971 232.794,52.69 234.791,50.599C236.069,49.26 237.837,48.454 239.748,48.291C239.354,46.727 238.187,43.995 234.759,42.898C231.201,41.76 227.867,43.371 225.932,45.258C225.889,45.299 225.847,45.341 225.806,45.382C227.318,46.178 228.355,47.398 228.692,48.802C229.313,51.399 227.833,53.238 226.049,53.712C224.323,54.172 222.181,53.326 221.447,50.813C221.105,49.644 221.224,48.322 221.744,47.002C221.032,47.049 220.296,47.245 219.613,47.658C216.482,49.551 216.88,52.554 216.884,52.584L214.4,52.945C214.373,52.755 213.774,48.255 218.313,45.51C219.731,44.653 221.479,44.325 223.188,44.554C223.486,44.18 223.816,43.814 224.179,43.461C226.637,41.064 230.907,39.029 235.524,40.507C239.111,41.655 241.656,44.602 242.335,48.391C242.339,48.416 242.344,48.442 242.349,48.468C244.713,48.991 246.644,50.465 247.7,52.577C248.336,53.849 248.583,55.182 248.546,56.482C248.695,56.518 248.843,56.558 248.99,56.604C250.624,57.109 252.805,58.477 253.915,62.117C255.707,67.998 251.579,74.593 251.402,74.872Z" style="fill:white;fill-rule:nonzero;"/>
        <path d="M220.77,57.019C220.77,60.309 218.103,62.976 214.812,62.976C211.522,62.976 208.854,60.309 208.854,57.019C208.854,53.728 211.522,51.061 214.812,51.061C218.103,51.061 220.77,53.728 220.77,57.019Z" style="fill:rgb(192,97,165);fill-rule:nonzero;"/>
        <path d="M231.802,267.51L200.069,276.728C197.681,268.508 202.849,259.783 211.616,257.236C220.375,254.691 229.414,259.291 231.802,267.51Z" style="fill:rgb(0,181,204);fill-rule:nonzero;"/>
        <path d="M233.982,207.932C216.197,218.714 212.203,242.22 216.512,260.947C217.115,263.57 221.15,262.46 220.546,259.835C216.67,242.989 219.973,221.317 236.094,211.544C238.394,210.15 236.293,206.531 233.982,207.932Z" style="fill:white;fill-rule:nonzero;"/>
        <path d="M281.183,289.6L249.697,279.568C252.296,271.412 261.449,267.049 270.148,269.819C278.839,272.589 283.781,281.443 281.183,289.6Z" style="fill:rgb(0,181,204);fill-rule:nonzero;"/>
        <path d="M266.576,209.547C275.974,228.843 272.646,253.591 262.857,271.853C261.586,274.226 265.196,276.342 266.47,273.965C277.022,254.277 280.272,228.139 270.188,207.436C269.01,205.016 265.4,207.134 266.576,209.547Z" style="fill:white;fill-rule:nonzero;"/>
        <path d="M237.704,167.061C217.432,162.402 198.183,176.388 188.203,192.847C186.803,195.155 190.419,197.26 191.815,194.958C200.765,180.2 218.213,166.872 236.592,171.095C239.212,171.698 240.331,167.665 237.704,167.061Z" style="fill:white;fill-rule:nonzero;"/>
        <path d="M193.639,208.075L188.066,204.66C189.633,202.103 189.145,198.957 186.979,197.629C184.813,196.301 181.788,197.293 180.22,199.85L174.648,196.434C178.439,190.249 185.763,187.844 191.006,191.059C196.25,194.273 197.43,201.891 193.639,208.075Z" style="fill:rgb(0,181,204);fill-rule:nonzero;"/>
        <path d="M264.107,169.542C284.38,174.2 303.629,160.214 313.609,143.756C315.009,141.447 311.393,139.342 309.996,141.644C301.047,156.403 283.599,169.73 265.22,165.507C262.6,164.905 261.48,168.938 264.107,169.542Z" style="fill:white;fill-rule:nonzero;"/>
        <path d="M306.543,130.097L312.116,133.513C310.549,136.069 311.037,139.216 313.203,140.543C315.368,141.871 318.395,140.879 319.962,138.322L325.534,141.738C321.743,147.923 314.419,150.328 309.176,147.114C303.932,143.899 302.752,136.282 306.543,130.097Z" style="fill:rgb(0,181,204);fill-rule:nonzero;"/>
        <rect x="243.884" y="147.391" width="11.297" height="13.389" style="fill:white;fill-rule:nonzero;"/>
        <path d="M266.265,87.979C266.265,96.606 259.271,103.599 250.645,103.599C242.018,103.599 235.024,96.606 235.024,87.979C235.024,79.353 242.018,72.36 250.645,72.36C259.271,72.36 266.265,79.353 266.265,87.979Z" style="fill:rgb(192,97,165);fill-rule:nonzero;"/>
        <path d="M206.325,131.353L201.098,131.353C198.01,131.353 195.483,128.826 195.483,125.738L195.483,104.612C195.483,101.523 198.01,98.998 201.098,98.998L206.325,98.998C209.414,98.998 211.94,101.523 211.94,104.612L211.94,125.738C211.94,128.826 209.414,131.353 206.325,131.353Z" style="fill:rgb(192,97,165);fill-rule:nonzero;"/>
        <path d="M300.191,131.353L294.964,131.353C291.876,131.353 289.349,128.826 289.349,125.738L289.349,104.612C289.349,101.523 291.876,98.998 294.964,98.998L300.191,98.998C303.279,98.998 305.806,101.523 305.806,104.612L305.806,125.738C305.806,128.826 303.279,131.353 300.191,131.353Z" style="fill:rgb(192,97,165);fill-rule:nonzero;"/>
        <path d="M205.496,135.048C204.45,123.124 203.3,92.164 203.857,87.422C204.229,84.264 204.656,79.333 217.951,79.333L249.044,79.333C292.836,79.333 280.005,79.333 287.257,79.333C294.509,79.333 297.577,81.286 297.577,95.232C297.577,109.178 296.462,131.213 296.462,135.676C296.462,140.139 296.462,142.091 285.305,142.091L213.062,142.091C204.415,142.091 205.772,138.201 205.496,135.048Z" style="fill:rgb(0,184,207);fill-rule:nonzero;"/>
        <path d="M202.435,140.069C202.435,140.069 224.649,134.302 248.274,133.169C277.011,131.792 300.785,133.169 300.785,133.169C300.785,133.169 299.924,142.467 299.063,145.345C298.202,148.223 292.822,151.101 277.758,151.101L212.765,151.101C208.03,151.101 205.448,149.927 203.941,146.009C202.435,142.091 202.435,140.069 202.435,140.069Z" style="fill:rgb(0,178,181);fill-rule:nonzero;"/>
        <path d="M238.514,116.639C238.514,124.765 231.927,131.353 223.801,131.353C215.675,131.353 209.087,124.765 209.087,116.639C209.087,108.513 215.675,101.926 223.801,101.926C231.927,101.926 238.514,108.513 238.514,116.639Z" style="fill:rgb(0,178,181);fill-rule:nonzero;"/>
        <path d="M235.336,116.47C235.336,122.841 230.171,128.005 223.801,128.005C217.43,128.005 212.266,122.841 212.266,116.47C212.266,110.1 217.43,104.935 223.801,104.935C230.171,104.935 235.336,110.1 235.336,116.47Z" style="fill:white;fill-rule:nonzero;"/>
        <path d="M292.836,112.316C292.836,122.136 284.875,130.097 275.055,130.097C265.234,130.097 257.273,122.136 257.273,112.316C257.273,102.496 265.234,94.535 275.055,94.535C284.875,94.535 292.836,102.496 292.836,112.316Z" style="fill:rgb(0,178,181);fill-rule:nonzero;"/>
        <path d="M289.349,112.36C289.349,120.059 283.107,126.3 275.409,126.3C267.71,126.3 261.469,120.059 261.469,112.36C261.469,104.661 267.71,98.42 275.409,98.42C283.107,98.42 289.349,104.661 289.349,112.36Z" style="fill:white;fill-rule:nonzero;"/>
        <path d="M225.013,115.175L223.286,115.175C222.265,115.175 221.43,114.34 221.43,113.319L221.43,109.778C221.43,108.758 222.265,107.922 223.286,107.922L225.013,107.922C226.034,107.922 226.869,108.758 226.869,109.778L226.869,113.319C226.869,114.34 226.034,115.175 225.013,115.175Z" style="fill:rgb(34,25,11);fill-rule:nonzero;"/>
        <path d="M275.918,122.427L274.19,122.427C273.17,122.427 272.335,121.592 272.335,120.571L272.335,117.03C272.335,116.01 273.17,115.175 274.19,115.175L275.918,115.175C276.938,115.175 277.774,116.01 277.774,117.03L277.774,120.571C277.774,121.592 276.938,122.427 275.918,122.427Z" style="fill:rgb(34,25,11);fill-rule:nonzero;"/>
        <path d="M229.375,160.02L269.363,157.572C272.448,157.383 275.055,159.834 275.055,162.925L275.055,206.251C275.055,209.213 272.653,211.614 269.691,211.614L233.875,211.614C231.124,211.614 228.818,209.533 228.539,206.796L224.368,165.917C224.059,162.886 226.334,160.206 229.375,160.02Z" style="fill:rgb(0,181,204);fill-rule:nonzero;"/>
        <path d="M260.508,186.72L240.229,186.72C236.471,186.72 233.424,183.673 233.424,179.914L233.424,173.024C233.424,169.266 236.471,166.219 240.229,166.219L260.508,166.219C264.267,166.219 267.313,169.266 267.313,173.024L267.313,179.914C267.313,183.673 264.267,186.72 260.508,186.72Z" style="fill:rgb(192,97,165);fill-rule:nonzero;"/>
        <path d="M313.688,184.647C311.667,183.454 311.007,180.877 312.203,178.853C313.408,176.814 315.99,176.155 318.023,177.368C320.056,178.582 320.702,181.116 319.499,183.16C318.292,185.209 315.745,185.862 313.688,184.647ZM323.045,188.215C322.684,187.49 322.321,186.767 321.949,186.046C321.864,185.881 321.854,185.762 321.98,185.602C322.34,185.148 322.628,184.646 322.855,184.115C322.927,183.945 323.026,183.888 323.203,183.874C323.943,183.814 324.684,183.74 325.424,183.67C325.834,183.632 326.034,183.438 326.038,183.037C326.051,181.684 326.057,180.331 326.057,178.978C326.057,178.604 325.913,178.461 325.543,178.419C324.739,178.33 323.935,178.235 323.13,178.155C322.956,178.138 322.848,178.081 322.774,177.918C322.538,177.391 322.25,176.891 321.934,176.408C321.86,176.295 321.838,176.192 321.897,176.067C322.251,175.327 322.583,174.575 322.962,173.848C323.106,173.57 323.047,173.395 322.821,173.261C321.648,172.562 320.472,171.867 319.288,171.187C318.973,171.005 318.748,171.085 318.542,171.372C318.103,171.984 317.655,172.592 317.222,173.209C317.112,173.365 317.001,173.425 316.808,173.393C316.258,173.302 315.702,173.305 315.151,173.392C314.959,173.422 314.849,173.378 314.738,173.217C314.311,172.596 313.872,171.983 313.432,171.372C313.148,170.978 312.855,170.917 312.428,171.156C311.306,171.785 310.185,172.416 309.063,173.047C308.662,173.274 308.607,173.431 308.795,173.862C309.095,174.554 309.394,175.247 309.709,175.933C309.793,176.116 309.786,176.252 309.683,176.424C309.396,176.899 309.083,177.362 308.872,177.876C308.796,178.062 308.709,178.127 308.517,178.142C307.754,178.203 306.991,178.278 306.229,178.354C305.87,178.39 305.679,178.577 305.674,178.937C305.659,180.312 305.652,181.687 305.655,183.062C305.656,183.419 305.807,183.557 306.159,183.596C306.963,183.686 307.767,183.778 308.571,183.861C308.738,183.879 308.857,183.918 308.934,184.09C309.167,184.619 309.46,185.115 309.771,185.603C309.849,185.726 309.869,185.826 309.801,185.969C309.477,186.637 309.169,187.314 308.851,187.985C308.638,188.434 308.691,188.631 309.125,188.89C309.669,189.214 310.216,189.533 310.762,189.854C311.346,190.197 311.926,190.546 312.514,190.882C312.885,191.093 313.096,191.039 313.34,190.701C313.781,190.089 314.228,189.481 314.661,188.864C314.757,188.726 314.852,188.678 315.017,188.705C315.579,188.797 316.146,188.803 316.707,188.71C316.922,188.675 317.029,188.753 317.142,188.915C317.57,189.535 318.009,190.147 318.449,190.759C318.701,191.11 319.007,191.184 319.371,190.98C320.513,190.34 321.653,189.7 322.793,189.055C323.214,188.816 323.263,188.652 323.045,188.215Z" style="fill:rgb(0,181,204);fill-rule:nonzero;"/>
        <path d="M161.661,156.425C159.965,155.926 159.009,154.167 159.51,152.468C160.014,150.758 161.778,149.802 163.486,150.313C165.193,150.825 166.131,152.556 165.629,154.27C165.125,155.988 163.386,156.933 161.661,156.425ZM169.149,157.308C168.752,156.845 168.354,156.383 167.95,155.926C167.857,155.821 167.828,155.736 167.891,155.596C168.07,155.198 168.188,154.779 168.256,154.349C168.277,154.212 168.338,154.151 168.465,154.109C168.995,153.929 169.521,153.739 170.049,153.551C170.341,153.448 170.452,153.27 170.381,152.976C170.142,151.985 169.896,150.997 169.647,150.009C169.579,149.736 169.447,149.658 169.169,149.696C168.565,149.778 167.961,149.857 167.359,149.947C167.229,149.967 167.139,149.945 167.056,149.84C166.786,149.499 166.484,149.186 166.164,148.892C166.089,148.823 166.054,148.752 166.075,148.65C166.196,148.044 166.301,147.434 166.443,146.833C166.497,146.604 166.422,146.487 166.232,146.431C165.247,146.136 164.261,145.846 163.271,145.566C163.007,145.492 162.858,145.593 162.761,145.839C162.552,146.368 162.337,146.894 162.135,147.424C162.083,147.558 162.013,147.622 161.867,147.634C161.448,147.669 161.042,147.774 160.657,147.938C160.522,147.996 160.433,147.984 160.323,147.887C159.896,147.512 159.463,147.146 159.029,146.78C158.75,146.545 158.525,146.554 158.257,146.808C157.553,147.474 156.851,148.141 156.148,148.808C155.897,149.047 155.886,149.172 156.102,149.452C156.449,149.902 156.794,150.353 157.151,150.795C157.246,150.914 157.266,151.015 157.223,151.159C157.101,151.559 156.957,151.954 156.898,152.369C156.876,152.518 156.825,152.582 156.688,152.628C156.142,152.813 155.599,153.008 155.056,153.204C154.801,153.296 154.695,153.468 154.759,153.731C155,154.738 155.249,155.744 155.504,156.747C155.57,157.007 155.706,157.08 155.97,157.044C156.573,156.961 157.178,156.881 157.781,156.793C157.905,156.776 158,156.782 158.087,156.894C158.354,157.237 158.66,157.545 158.977,157.844C159.056,157.919 159.09,157.989 159.065,158.106C158.952,158.653 158.852,159.205 158.744,159.753C158.671,160.12 158.746,160.254 159.111,160.363C159.567,160.5 160.025,160.631 160.483,160.765C160.972,160.908 161.46,161.056 161.952,161.193C162.261,161.28 162.405,161.201 162.521,160.909C162.73,160.381 162.944,159.855 163.147,159.325C163.192,159.207 163.252,159.154 163.378,159.144C163.805,159.107 164.22,159.006 164.613,158.836C164.763,158.771 164.856,158.808 164.968,158.906C165.395,159.279 165.828,159.646 166.262,160.011C166.511,160.221 166.747,160.218 166.976,160.002C167.691,159.325 168.406,158.647 169.119,157.967C169.383,157.715 169.389,157.587 169.149,157.308Z" style="fill:rgb(0,181,204);fill-rule:nonzero;"/>
        <path d="M171.141,147.828C175.014,147.18 178.89,147.213 182.734,147.621C184.656,147.814 186.559,148.152 188.444,148.554L191.252,149.245L194.007,150.124C194.935,150.386 195.809,150.803 196.708,151.145C197.601,151.507 198.505,151.839 199.356,152.292L201.946,153.568C202.792,154.024 203.604,154.542 204.435,155.025C206.126,155.948 207.635,157.15 209.215,158.241L209.802,158.658L210.354,159.12L211.457,160.048L213.659,161.902L211.423,160.088L210.307,159.182L209.747,158.731L209.153,158.325C207.556,157.265 206.031,156.094 204.329,155.205C203.492,154.738 202.674,154.238 201.824,153.799L199.226,152.578C198.373,152.142 197.467,151.829 196.574,151.486C195.675,151.162 194.802,150.765 193.875,150.521L191.129,149.699L188.335,149.066C186.462,148.702 184.574,148.401 182.673,148.245C178.887,147.908 175.012,147.958 171.319,148.646L171.141,147.828Z" style="fill:white;fill-rule:nonzero;"/>
        <path d="M173.823,154.329C177.516,153.762 181.2,153.741 184.876,153.994C188.544,154.268 192.197,154.808 195.753,155.739C199.303,156.668 202.812,157.799 206.141,159.346C207.841,160.039 209.438,160.945 211.064,161.788C211.89,162.188 212.646,162.712 213.431,163.183L215.768,164.626L213.404,163.228C212.611,162.772 211.847,162.264 211.015,161.88C209.375,161.069 207.766,160.196 206.057,159.538C202.712,158.06 199.198,157.001 195.655,156.146C192.106,155.288 188.473,154.823 184.838,154.621C181.211,154.436 177.525,154.537 173.986,155.149L173.823,154.329Z" style="fill:white;fill-rule:nonzero;"/>
        <path d="M304.372,177.793C300.995,176.147 297.273,175.068 293.534,174.385C291.659,174.03 289.76,173.817 287.857,173.669L284.995,173.536L282.13,173.598C281.172,173.585 280.225,173.737 279.271,173.809C278.32,173.902 277.363,173.963 276.425,174.156L273.595,174.642C272.659,174.839 271.737,175.103 270.808,175.331C268.93,175.734 267.148,176.458 265.326,177.054L264.646,177.287L263.986,177.573L262.669,178.149L260.031,179.303L262.647,178.102L263.956,177.5L264.612,177.202L265.289,176.957C267.102,176.326 268.877,175.568 270.752,175.128C271.682,174.883 272.603,174.601 273.54,174.387L276.375,173.847C277.316,173.636 278.276,173.557 279.233,173.445C280.191,173.354 281.145,173.186 282.108,173.18L284.998,173.065L287.889,173.147C289.813,173.262 291.737,173.441 293.642,173.767C297.455,174.397 301.2,175.396 304.761,177.052L304.372,177.793Z" style="fill:white;fill-rule:nonzero;"/>
        <path d="M300.07,183.353C296.821,181.82 293.296,180.742 289.75,179.955C286.193,179.182 282.566,178.663 278.918,178.545C275.274,178.427 271.605,178.513 267.987,179.047C266.166,179.227 264.382,179.641 262.585,179.986C261.681,180.134 260.81,180.42 259.924,180.648L257.273,181.368L259.909,180.598C260.792,180.353 261.66,180.05 262.562,179.884C264.354,179.504 266.135,179.056 267.958,178.84C271.578,178.235 275.262,178.078 278.932,178.127C282.606,178.176 286.271,178.628 289.88,179.34C293.491,180.074 297.036,181.075 300.446,182.604L300.07,183.353Z" style="fill:white;fill-rule:nonzero;"/>
        <path d="M130.404,410.378L130.404,405.309L133.082,405.309C135.04,405.309 135.875,406.288 135.875,407.843C135.875,409.398 135.04,410.378 133.082,410.378L130.404,410.378ZM140.886,407.843C140.886,404.129 138.409,401.335 133.456,401.335L125.48,401.335L125.48,421.55L130.404,421.55L130.404,414.294L133.456,414.294C138.611,414.294 140.886,411.184 140.886,407.843Z" style="fill:white;fill-rule:nonzero;"/>
        <path d="M157.242,421.55L162.454,421.55L155.14,401.335L149.438,401.335L142.124,421.55L147.279,421.55L148.488,417.98L156.033,417.98L157.242,421.55ZM154.766,414.179L149.784,414.179L152.26,406.778L154.766,414.179Z" style="fill:white;fill-rule:nonzero;"/>
        <path d="M174.117,401.105C168.07,401.105 163.837,405.367 163.837,411.414C163.837,417.461 168.098,421.694 174.146,421.694C179.473,421.694 182.842,418.21 183.879,414.726L183.879,410.147L173.167,410.147L173.167,413.775L179.415,413.775C178.667,416.05 176.968,417.346 174.52,417.346C170.978,417.346 168.847,415.158 168.847,411.414C168.847,407.901 170.949,405.655 174.117,405.655C175.96,405.655 177.342,406.375 178.091,407.728L183.533,407.728C182.468,403.582 178.955,401.105 174.117,401.105Z" style="fill:white;fill-rule:nonzero;"/>
        <path d="M198.996,401.335L186.614,401.335L186.614,421.55L198.996,421.55L198.996,417.605L191.538,417.605L191.538,413.171L198.132,413.171L198.132,409.37L191.538,409.37L191.538,405.281L198.996,405.281L198.996,401.335Z" style="fill:white;fill-rule:nonzero;"/>
        <path d="M221.456,401.336L221.456,413.862L213.221,401.336L208.296,401.336L208.296,421.551L213.221,421.551L213.221,409.082L221.456,421.551L226.381,421.551L226.381,401.336L221.456,401.336Z" style="fill:white;fill-rule:nonzero;"/>
        <path d="M249.85,411.385C249.85,405.309 245.271,401.048 239.512,401.048C233.781,401.048 229.116,405.309 229.116,411.385C229.116,417.462 233.781,421.752 239.512,421.752C245.242,421.752 249.85,417.462 249.85,411.385ZM234.156,411.385C234.156,407.786 236.229,405.511 239.512,405.511C242.737,405.511 244.839,407.786 244.839,411.385C244.839,414.927 242.737,417.26 239.512,417.26C236.229,417.26 234.156,414.927 234.156,411.385Z" style="fill:white;fill-rule:nonzero;"/>
        <path d="M251.491,405.281L256.847,405.281L256.847,421.551L261.771,421.551L261.771,405.281L267.127,405.281L267.127,401.336L251.491,401.336L251.491,405.281Z" style="fill:white;fill-rule:nonzero;"/>
        <path d="M275.708,421.551L280.632,421.551L280.632,413.372L286.794,413.372L286.794,409.543L280.632,409.543L280.632,405.281L288.868,405.281L288.868,401.336L275.708,401.336L275.708,421.551Z" style="fill:white;fill-rule:nonzero;"/>
        <path d="M311.358,411.386C311.358,405.31 306.779,401.048 301.02,401.048C295.29,401.048 290.625,405.31 290.625,411.386C290.625,417.462 295.29,421.752 301.02,421.752C306.751,421.752 311.358,417.462 311.358,411.386ZM295.664,411.386C295.664,407.786 297.737,405.511 301.02,405.511C304.245,405.511 306.347,407.786 306.347,411.386C306.347,414.927 304.245,417.26 301.02,417.26C297.737,417.26 295.664,414.927 295.664,411.386Z" style="fill:white;fill-rule:nonzero;"/>
        <path d="M314.007,413.401C314.007,418.988 317.664,421.752 322.358,421.752C327.023,421.752 330.939,418.988 330.939,413.401L330.939,401.336L326.015,401.336L326.015,413.43C326.015,415.82 324.777,417.202 322.445,417.202C320.112,417.202 318.931,415.82 318.931,413.43L318.931,401.336L314.007,401.336L314.007,413.401Z" style="fill:white;fill-rule:nonzero;"/>
        <path d="M347.554,401.336L347.554,413.862L339.319,401.336L334.394,401.336L334.394,421.551L339.319,421.551L339.319,409.082L347.554,421.551L352.478,421.551L352.478,401.336L347.554,401.336Z" style="fill:white;fill-rule:nonzero;"/>
        <path d="M363.622,401.336L356.049,401.336L356.049,421.551L363.622,421.551C370.073,421.551 374.219,417.433 374.219,411.443C374.219,405.425 370.073,401.336 363.622,401.336ZM360.973,417.289L360.973,405.54L363.305,405.54C367.02,405.54 369.209,407.728 369.209,411.443C369.209,415.158 367.02,417.289 363.305,417.289L360.973,417.289Z" style="fill:white;fill-rule:nonzero;"/>
        <path d="M146.604,310.527L164.603,310.527L164.603,250.054L163.163,250.054L161.723,255.333L146.604,310.527ZM164.603,333.325L124.527,333.325L124.527,310.527L162.442,195.339L188.36,195.339L188.36,310.527L200.359,310.527L200.359,333.325L188.36,333.325L188.36,371.721L164.603,371.721L164.603,333.325Z" style="fill:rgb(0,181,204);fill-rule:nonzero;"/>
        <path d="M252.911,231.576C252.911,226.776 251.951,223.416 249.552,220.537C248.352,219.337 246.432,218.617 244.272,218.617C239.713,218.617 237.553,221.977 236.593,225.096C235.874,227.016 235.633,229.176 235.633,231.576L235.633,335.484C235.633,340.524 236.833,343.884 239.233,346.523C240.433,347.724 242.113,348.442 244.272,348.442C248.832,348.442 250.992,345.563 251.951,341.964C252.672,340.283 252.911,338.124 252.911,335.484L252.911,231.576ZM278.829,335.484C278.588,342.684 277.148,349.163 274.51,354.683C272.35,359.481 268.99,364.042 264.19,367.641C259.39,371.48 252.911,373.64 244.272,373.64C235.633,373.64 228.914,371.48 224.115,367.641C219.315,364.042 216.196,359.481 214.036,354.683C211.396,349.163 209.956,342.684 209.716,335.484L209.716,231.576C209.956,224.616 211.396,218.137 214.036,212.618C216.196,207.818 219.315,203.019 224.115,199.419C228.914,195.819 235.633,193.42 244.272,193.42C252.911,193.42 259.39,195.819 264.19,199.419C268.99,203.019 272.35,207.818 274.51,212.618C277.148,218.137 278.588,224.616 278.829,231.576L278.829,335.484Z" style="fill:rgb(0,181,204);fill-rule:nonzero;"/>
        <path d="M311.7,310.527L329.698,310.527L329.698,250.054L328.259,250.054L326.819,255.333L311.7,310.527ZM329.698,333.325L289.623,333.325L289.623,310.527L327.538,195.339L353.456,195.339L353.456,310.527L365.454,310.527L365.454,333.325L353.456,333.325L353.456,371.721L329.698,371.721L329.698,333.325Z" style="fill:rgb(0,181,204);fill-rule:nonzero;"/>
        <path d="M159.136,309.396L177.134,309.396L177.134,248.922L175.694,248.922L174.254,254.201L159.136,309.396ZM177.134,332.193L137.059,332.193L137.059,309.396L174.974,194.208L200.892,194.208L200.892,309.396L212.891,309.396L212.891,332.193L200.892,332.193L200.892,370.589L177.134,370.589L177.134,332.193Z" style="fill:rgb(192,97,165);fill-rule:nonzero;"/>
        <path d="M265.443,230.444C265.443,225.645 264.482,222.285 262.084,219.405C260.884,218.206 258.963,217.485 256.803,217.485C252.244,217.485 250.084,220.845 249.125,223.965C248.405,225.885 248.165,228.044 248.165,230.444L248.165,334.353C248.165,339.393 249.365,342.752 251.765,345.392C252.964,346.592 254.645,347.311 256.803,347.311C261.363,347.311 263.523,344.432 264.482,340.832C265.203,339.151 265.443,336.992 265.443,334.353L265.443,230.444ZM291.36,334.353C291.12,341.552 289.68,348.031 287.041,353.551C284.881,358.35 281.521,362.91 276.722,366.509C271.923,370.349 265.443,372.508 256.803,372.508C248.165,372.508 241.446,370.349 236.646,366.509C231.847,362.91 228.727,358.35 226.567,353.551C223.928,348.031 222.488,341.552 222.248,334.353L222.248,230.444C222.488,223.484 223.928,217.005 226.567,211.486C228.727,206.687 231.847,201.887 236.646,198.288C241.446,194.688 248.165,192.289 256.803,192.289C265.443,192.289 271.923,194.688 276.722,198.288C281.521,201.887 284.881,206.687 287.041,211.486C289.68,217.005 291.12,223.484 291.36,230.444L291.36,334.353Z" style="fill:rgb(192,97,165);fill-rule:nonzero;"/>
        <path d="M324.232,309.396L342.23,309.396L342.23,248.922L340.79,248.922L339.351,254.201L324.232,309.396ZM342.23,332.193L302.154,332.193L302.154,309.396L340.07,194.208L365.987,194.208L365.987,309.396L377.985,309.396L377.985,332.193L365.987,332.193L365.987,370.589L342.23,370.589L342.23,332.193Z" style="fill:rgb(192,97,165);fill-rule:nonzero;"/>
        <path d="M151.781,307.266L169.78,307.266L169.78,246.793L168.339,246.793L166.899,252.072L151.781,307.266ZM169.78,330.064L129.703,330.064L129.703,307.266L167.62,192.079L193.537,192.079L193.537,307.266L205.536,307.266L205.536,330.064L193.537,330.064L193.537,368.46L169.78,368.46L169.78,330.064Z" style="fill:white;fill-rule:nonzero;"/>
        <path d="M258.088,228.314C258.088,223.515 257.127,220.156 254.729,217.276C253.529,216.076 251.608,215.356 249.449,215.356C244.89,215.356 242.73,218.716 241.77,221.835C241.05,223.755 240.81,225.915 240.81,228.314L240.81,332.224C240.81,337.264 242.01,340.622 244.41,343.263C245.609,344.462 247.29,345.182 249.449,345.182C254.009,345.182 256.169,342.302 257.127,338.703C257.849,337.022 258.088,334.863 258.088,332.224L258.088,228.314ZM284.006,332.224C283.765,339.423 282.325,345.902 279.687,351.422C277.526,356.221 274.167,360.781 269.367,364.38C264.568,368.22 258.088,370.379 249.449,370.379C240.81,370.379 234.091,368.22 229.292,364.38C224.492,360.781 221.373,356.221 219.213,351.422C216.573,345.902 215.133,339.423 214.893,332.224L214.893,228.314C215.133,221.355 216.573,214.876 219.213,209.357C221.373,204.557 224.492,199.758 229.292,196.158C234.091,192.559 240.81,190.159 249.449,190.159C258.088,190.159 264.568,192.559 269.367,196.158C274.167,199.758 277.526,204.557 279.687,209.357C282.325,214.876 283.765,221.355 284.006,228.314L284.006,332.224Z" style="fill:white;fill-rule:nonzero;"/>
        <path d="M316.877,307.266L334.875,307.266L334.875,246.793L333.436,246.793L331.996,252.072L316.877,307.266ZM334.875,330.064L294.8,330.064L294.8,307.266L332.715,192.079L358.633,192.079L358.633,307.266L370.631,307.266L370.631,330.064L358.633,330.064L358.633,368.46L334.875,368.46L334.875,330.064Z" style="fill:white;fill-rule:nonzero;"/>
        <rect x="95.559" y="212.219" width="86.562" height="8.486" style="fill:rgb(192,97,165);fill-rule:nonzero;"/>
        <rect x="248.08" y="356.958" width="52.019" height="8.486" style="fill:rgb(192,97,165);fill-rule:nonzero;"/>
        <rect x="356.374" y="234.283" width="69.022" height="7.355" style="fill:rgb(192,97,165);fill-rule:nonzero;"/>
        <rect x="185.609" y="234.283" width="28.949" height="7.355" style="fill:rgb(192,97,165);fill-rule:nonzero;"/>
        <rect x="318.757" y="204.864" width="28.948" height="7.355" style="fill:rgb(192,97,165);fill-rule:nonzero;"/>
        <rect x="205.953" y="265.966" width="36.464" height="7.354" style="fill:rgb(192,97,165);fill-rule:nonzero;"/>
        <rect x="324.232" y="339.956" width="32.451" height="7.355" style="fill:rgb(192,97,165);fill-rule:nonzero;"/>
        <rect x="104.046" y="306.135" width="48.09" height="3.261" style="fill:rgb(192,97,165);fill-rule:nonzero;"/>
        <rect x="351.282" y="280.768" width="48.09" height="3.26" style="fill:rgb(192,97,165);fill-rule:nonzero;"/>
        <rect x="232.285" y="297.837" width="26.797" height="3.261" style="fill:rgb(192,97,165);fill-rule:nonzero;"/>
        <rect x="145.737" y="284.028" width="26.798" height="3.261" style="fill:rgb(192,97,165);fill-rule:nonzero;"/>
        <rect x="132.339" y="347.311" width="26.797" height="3.261" style="fill:rgb(192,97,165);fill-rule:nonzero;"/>
        <rect x="83.028" y="213.35" width="86.561" height="8.486" style="fill:rgb(0,181,204);fill-rule:nonzero;"/>
        <rect x="235.548" y="358.09" width="52.019" height="8.486" style="fill:rgb(0,181,204);fill-rule:nonzero;"/>
        <rect x="343.843" y="235.415" width="69.022" height="7.355" style="fill:rgb(0,181,204);fill-rule:nonzero;"/>
        <rect x="173.078" y="235.415" width="28.948" height="7.355" style="fill:rgb(0,181,204);fill-rule:nonzero;"/>
        <rect x="306.226" y="205.995" width="28.948" height="7.355" style="fill:rgb(0,181,204);fill-rule:nonzero;"/>
        <rect x="193.421" y="267.098" width="36.464" height="7.354" style="fill:rgb(0,181,204);fill-rule:nonzero;"/>
        <rect x="311.7" y="341.088" width="32.451" height="7.354" style="fill:rgb(0,181,204);fill-rule:nonzero;"/>
        <rect x="91.514" y="307.266" width="48.09" height="3.261" style="fill:rgb(0,181,204);fill-rule:nonzero;"/>
        <rect x="338.751" y="281.899" width="48.089" height="3.261" style="fill:rgb(0,181,204);fill-rule:nonzero;"/>
        <rect x="219.753" y="298.968" width="26.798" height="3.261" style="fill:rgb(0,181,204);fill-rule:nonzero;"/>
        <rect x="133.206" y="285.16" width="26.797" height="3.261" style="fill:rgb(0,181,204);fill-rule:nonzero;"/>
        <rect x="119.807" y="348.442" width="26.797" height="3.261" style="fill:rgb(0,181,204);fill-rule:nonzero;"/>
        <rect x="88.205" y="210.089" width="86.561" height="8.487" style="fill:white;fill-rule:nonzero;"/>
        <rect x="240.726" y="354.829" width="52.018" height="8.486" style="fill:white;fill-rule:nonzero;"/>
        <rect x="349.02" y="232.154" width="69.022" height="7.355" style="fill:white;fill-rule:nonzero;"/>
        <rect x="178.255" y="232.154" width="28.948" height="7.355" style="fill:white;fill-rule:nonzero;"/>
        <rect x="311.402" y="202.734" width="28.949" height="7.355" style="fill:white;fill-rule:nonzero;"/>
        <rect x="198.598" y="263.836" width="36.464" height="7.355" style="fill:white;fill-rule:nonzero;"/>
        <rect x="316.877" y="337.827" width="32.451" height="7.355" style="fill:white;fill-rule:nonzero;"/>
        <rect x="96.691" y="304.005" width="48.09" height="3.261" style="fill:white;fill-rule:nonzero;"/>
        <rect x="343.928" y="278.639" width="48.089" height="3.26" style="fill:white;fill-rule:nonzero;"/>
        <rect x="224.93" y="295.707" width="26.798" height="3.261" style="fill:white;fill-rule:nonzero;"/>
        <rect x="138.383" y="281.899" width="26.797" height="3.261" style="fill:white;fill-rule:nonzero;"/>
        <rect x="124.984" y="345.182" width="26.797" height="3.26" style="fill:white;fill-rule:nonzero;"/>
    </g>
</svg>
